<svg width="14" height="24" viewBox="0 0 14 24" fill="none" xmlns="http://www.w3.org/2000/svg">
<path fill-rule="evenodd" clip-rule="evenodd" d="M8.73124 24V13.2H12.2287L12.8 8.4H8.73124V6.0624C8.73124 4.8264 8.76492 3.6 10.6072 3.6H12.4732V0.168C12.4732 0.1164 10.8704 0 9.24888 0C5.86241 0 3.74196 1.9884 3.74196 5.64V8.4H0V13.2H3.74196V24H8.73124Z" fill="#DBDBDB"/>
<mask id="mask0_0_15" style="mask-type:alpha" maskUnits="userSpaceOnUse" x="0" y="0" width="13" height="24">
<path fill-rule="evenodd" clip-rule="evenodd" d="M8.73124 24V13.2H12.2287L12.8 8.4H8.73124V6.0624C8.73124 4.8264 8.76492 3.6 10.6072 3.6H12.4732V0.168C12.4732 0.1164 10.8704 0 9.24888 0C5.86241 0 3.74196 1.9884 3.74196 5.64V8.4H0V13.2H3.74196V24H8.73124Z" fill="white"/>
</mask>
<g mask="url(#mask0_0_15)">
<rect width="13.7143" height="24" fill="black"/>
</g>
</svg>
