<svg width="24" height="24" viewBox="0 0 24 24" fill="none" xmlns="http://www.w3.org/2000/svg">
<path fill-rule="evenodd" clip-rule="evenodd" d="M19.8456 5.59436C19.8456 6.38964 19.2009 7.03436 18.4056 7.03436C17.6103 7.03436 16.9655 6.38964 16.9655 5.59436C16.9655 4.79907 17.6103 4.15436 18.4056 4.15436C19.2009 4.15436 19.8456 4.79907 19.8456 5.59436ZM12.0001 16C9.79095 16 8.00004 14.2091 8.00004 12C8.00004 9.79089 9.79095 7.99998 12.0001 7.99998C14.2092 7.99998 16.0001 9.79089 16.0001 12C16.0001 14.2091 14.2092 16 12.0001 16ZM11.9999 5.83782C8.5967 5.83782 5.83773 8.5967 5.83773 12C5.83773 15.4032 8.5967 18.1622 11.9999 18.1622C15.4031 18.1622 18.1621 15.4032 18.1621 12C18.1621 8.5967 15.4031 5.83782 11.9999 5.83782ZM12 0C8.74097 0 8.33241 0.0137812 7.05244 0.0721875C5.77519 0.1305 4.90284 0.333281 4.13953 0.63C3.35044 0.936656 2.68125 1.347 2.01413 2.01413C1.347 2.68116 0.936656 3.35034 0.63 4.13953C0.333375 4.90284 0.1305 5.77509 0.0721875 7.05244C0.0137812 8.33231 0 8.74097 0 12C0 15.259 0.0137812 15.6677 0.0721875 16.9476C0.1305 18.2248 0.333375 19.0972 0.63 19.8605C0.936656 20.6495 1.347 21.3188 2.01413 21.9859C2.68125 22.653 3.35044 23.0633 4.13953 23.37C4.90284 23.6667 5.77519 23.8695 7.05244 23.9278C8.33241 23.9862 8.74097 24 12 24C15.259 24 15.6678 23.9862 16.9476 23.9278C18.2249 23.8695 19.0972 23.6667 19.8605 23.37C20.6496 23.0633 21.3188 22.653 21.986 21.9859C22.653 21.3188 23.0633 20.6496 23.3701 19.8605C23.6667 19.0972 23.8695 18.2248 23.9278 16.9476C23.9862 15.6677 24 15.259 24 12C24 8.74097 23.9862 8.33231 23.9278 7.05244C23.8695 5.77509 23.6667 4.90284 23.3701 4.13953C23.0633 3.35034 22.653 2.68116 21.986 2.01413C21.3188 1.347 20.6496 0.936656 19.8605 0.63C19.0972 0.333281 18.2249 0.1305 16.9476 0.0721875C15.6678 0.0137812 15.259 0 12 0ZM12 2.16217C15.2042 2.16217 15.5837 2.17436 16.849 2.23211C18.019 2.28554 18.6544 2.48101 19.0774 2.64526C19.6373 2.86295 20.0372 3.12311 20.457 3.54292C20.877 3.96282 21.1369 4.36267 21.3547 4.92273C21.5191 5.34564 21.7145 5.98107 21.7679 7.15098C21.8256 8.41632 21.8378 8.79583 21.8378 12C21.8378 15.2041 21.8256 15.5836 21.7679 16.849C21.7145 18.019 21.5191 18.6544 21.3547 19.0773C21.1369 19.6374 20.877 20.0371 20.457 20.4571C20.0372 20.8769 19.6373 21.1371 19.0774 21.3547C18.6544 21.519 18.019 21.7145 16.849 21.7679C15.5839 21.8256 15.2044 21.8378 12 21.8378C8.7957 21.8378 8.41611 21.8256 7.15095 21.7679C5.98104 21.7145 5.34561 21.519 4.92279 21.3547C4.36264 21.1371 3.96279 20.8769 3.54289 20.4571C3.12307 20.0371 2.86301 19.6374 2.64532 19.0773C2.48098 18.6544 2.28551 18.019 2.23217 16.849C2.17432 15.5836 2.16214 15.2041 2.16214 12C2.16214 8.79583 2.17432 8.41632 2.23217 7.15098C2.28551 5.98107 2.48098 5.34564 2.64532 4.92273C2.86301 4.36267 3.12307 3.96282 3.54289 3.54292C3.96279 3.12311 4.36264 2.86295 4.92279 2.64526C5.34561 2.48101 5.98104 2.28554 7.15095 2.23211C8.41629 2.17436 8.79589 2.16217 12 2.16217Z" fill="#DBDBDB"/>
<mask id="mask0_0_21" style="mask-type:alpha" maskUnits="userSpaceOnUse" x="0" y="0" width="24" height="24">
<path fill-rule="evenodd" clip-rule="evenodd" d="M19.8456 5.59436C19.8456 6.38964 19.2009 7.03436 18.4056 7.03436C17.6103 7.03436 16.9655 6.38964 16.9655 5.59436C16.9655 4.79907 17.6103 4.15436 18.4056 4.15436C19.2009 4.15436 19.8456 4.79907 19.8456 5.59436ZM12.0001 16C9.79095 16 8.00004 14.2091 8.00004 12C8.00004 9.79089 9.79095 7.99998 12.0001 7.99998C14.2092 7.99998 16.0001 9.79089 16.0001 12C16.0001 14.2091 14.2092 16 12.0001 16ZM11.9999 5.83782C8.5967 5.83782 5.83773 8.5967 5.83773 12C5.83773 15.4032 8.5967 18.1622 11.9999 18.1622C15.4031 18.1622 18.1621 15.4032 18.1621 12C18.1621 8.5967 15.4031 5.83782 11.9999 5.83782ZM12 0C8.74097 0 8.33241 0.0137812 7.05244 0.0721875C5.77519 0.1305 4.90284 0.333281 4.13953 0.63C3.35044 0.936656 2.68125 1.347 2.01413 2.01413C1.347 2.68116 0.936656 3.35034 0.63 4.13953C0.333375 4.90284 0.1305 5.77509 0.0721875 7.05244C0.0137812 8.33231 0 8.74097 0 12C0 15.259 0.0137812 15.6677 0.0721875 16.9476C0.1305 18.2248 0.333375 19.0972 0.63 19.8605C0.936656 20.6495 1.347 21.3188 2.01413 21.9859C2.68125 22.653 3.35044 23.0633 4.13953 23.37C4.90284 23.6667 5.77519 23.8695 7.05244 23.9278C8.33241 23.9862 8.74097 24 12 24C15.259 24 15.6678 23.9862 16.9476 23.9278C18.2249 23.8695 19.0972 23.6667 19.8605 23.37C20.6496 23.0633 21.3188 22.653 21.986 21.9859C22.653 21.3188 23.0633 20.6496 23.3701 19.8605C23.6667 19.0972 23.8695 18.2248 23.9278 16.9476C23.9862 15.6677 24 15.259 24 12C24 8.74097 23.9862 8.33231 23.9278 7.05244C23.8695 5.77509 23.6667 4.90284 23.3701 4.13953C23.0633 3.35034 22.653 2.68116 21.986 2.01413C21.3188 1.347 20.6496 0.936656 19.8605 0.63C19.0972 0.333281 18.2249 0.1305 16.9476 0.0721875C15.6678 0.0137812 15.259 0 12 0ZM12 2.16217C15.2042 2.16217 15.5837 2.17436 16.849 2.23211C18.019 2.28554 18.6544 2.48101 19.0774 2.64526C19.6373 2.86295 20.0372 3.12311 20.457 3.54292C20.877 3.96282 21.1369 4.36267 21.3547 4.92273C21.5191 5.34564 21.7145 5.98107 21.7679 7.15098C21.8256 8.41632 21.8378 8.79583 21.8378 12C21.8378 15.2041 21.8256 15.5836 21.7679 16.849C21.7145 18.019 21.5191 18.6544 21.3547 19.0773C21.1369 19.6374 20.877 20.0371 20.457 20.4571C20.0372 20.8769 19.6373 21.1371 19.0774 21.3547C18.6544 21.519 18.019 21.7145 16.849 21.7679C15.5839 21.8256 15.2044 21.8378 12 21.8378C8.7957 21.8378 8.41611 21.8256 7.15095 21.7679C5.98104 21.7145 5.34561 21.519 4.92279 21.3547C4.36264 21.1371 3.96279 20.8769 3.54289 20.4571C3.12307 20.0371 2.86301 19.6374 2.64532 19.0773C2.48098 18.6544 2.28551 18.019 2.23217 16.849C2.17432 15.5836 2.16214 15.2041 2.16214 12C2.16214 8.79583 2.17432 8.41632 2.23217 7.15098C2.28551 5.98107 2.48098 5.34564 2.64532 4.92273C2.86301 4.36267 3.12307 3.96282 3.54289 3.54292C3.96279 3.12311 4.36264 2.86295 4.92279 2.64526C5.34561 2.48101 5.98104 2.28554 7.15095 2.23211C8.41629 2.17436 8.79589 2.16217 12 2.16217Z" fill="white"/>
</mask>
<g mask="url(#mask0_0_21)">
<rect width="24" height="24" fill="black"/>
</g>
</svg>
