<svg width="24" height="21" viewBox="0 0 24 21" fill="none" xmlns="http://www.w3.org/2000/svg">
<path fill-rule="evenodd" clip-rule="evenodd" d="M7.548 20.3077C16.6044 20.3077 21.558 12.4939 21.558 5.71847C21.558 5.49604 21.558 5.27486 21.5436 5.05493C22.5072 4.33015 23.3388 3.43043 24 2.40075C23.1024 2.81562 22.1484 3.08804 21.1728 3.208C22.2 2.56695 22.9692 1.55976 23.3376 0.37138C22.3704 0.968694 21.3132 1.38981 20.2104 1.61599C18.3456 -0.448366 15.2268 -0.548335 13.2432 1.39356C11.9652 2.64567 11.4216 4.51259 11.8188 6.29329C7.86 6.08586 4.1712 4.13896 1.6704 0.936204C0.3636 3.27923 1.032 6.2758 3.1956 7.78033C2.412 7.75659 1.6452 7.53666 0.96 7.13928V7.20426C0.9612 9.64475 2.6136 11.7466 4.9104 12.2302C4.1856 12.4364 3.4248 12.4664 2.688 12.3177C3.3324 14.407 5.1816 15.8378 7.2876 15.8791C5.544 17.3061 3.39 18.0809 1.1724 18.0784C0.7812 18.0771 0.39 18.0534 0 18.0047C2.2524 19.5092 4.872 20.3077 7.548 20.3039" fill="#DBDBDB"/>
<mask id="mask0_0_18" style="mask-type:alpha" maskUnits="userSpaceOnUse" x="0" y="0" width="24" height="21">
<path fill-rule="evenodd" clip-rule="evenodd" d="M7.548 20.3077C16.6044 20.3077 21.558 12.4939 21.558 5.71847C21.558 5.49604 21.558 5.27486 21.5436 5.05493C22.5072 4.33015 23.3388 3.43043 24 2.40075C23.1024 2.81562 22.1484 3.08804 21.1728 3.208C22.2 2.56695 22.9692 1.55976 23.3376 0.37138C22.3704 0.968694 21.3132 1.38981 20.2104 1.61599C18.3456 -0.448366 15.2268 -0.548335 13.2432 1.39356C11.9652 2.64567 11.4216 4.51259 11.8188 6.29329C7.86 6.08586 4.1712 4.13896 1.6704 0.936204C0.3636 3.27923 1.032 6.2758 3.1956 7.78033C2.412 7.75659 1.6452 7.53666 0.96 7.13928V7.20426C0.9612 9.64475 2.6136 11.7466 4.9104 12.2302C4.1856 12.4364 3.4248 12.4664 2.688 12.3177C3.3324 14.407 5.1816 15.8378 7.2876 15.8791C5.544 17.3061 3.39 18.0809 1.1724 18.0784C0.7812 18.0771 0.39 18.0534 0 18.0047C2.2524 19.5092 4.872 20.3077 7.548 20.3039" fill="white"/>
</mask>
<g mask="url(#mask0_0_18)">
<rect width="24" height="20.3077" fill="black"/>
</g>
</svg>
